<svg width="368" height="249" viewBox="0 0 368 249" fill="none" xmlns="http://www.w3.org/2000/svg">
<path d="M33.892 3L191.842 106.354V187.5H33.892V3Z" fill="#FEDA00"/>
<path d="M191.842 106.354H332.717V187.5H191.842V106.354Z" fill="#FEDA00"/>
<path d="M191.842 106.354L33.892 3V187.5H191.842M191.842 106.354V187.5M191.842 106.354H332.717V187.5H191.842" stroke="#FE611A" stroke-width="3"/>
<path d="M2.87722 103.792C1.16979 118.313 -3.0992 130.271 11.6937 139.667C25.0757 148.166 21.6606 126.854 33.6136 116.604C46.4203 106.354 48.9817 103.792 74.5953 106.354C94.2324 106.354 96.4665 87.1527 103.624 81.5834C109.921 76.6836 126.278 66.0775 131.799 60.2292C140.337 46.5625 121.553 47.4167 131.799 32.8958C142.044 23.5 143.444 9.83334 133.785 9.83334C127.861 9.83334 113.869 9.83334 104.478 19.2292C91.7088 32.0039 93.1998 49.4561 80.5717 62.7917C67.7406 76.3417 63.4961 67.9167 37.0288 73.8959C13.1227 84.1459 5.43857 94.3959 2.87722 103.792Z" fill="#FE611A" fill-opacity="0.9" stroke="#FE611A" stroke-opacity="0.9" stroke-linecap="round" stroke-linejoin="round"/>
<path d="M34.4673 192.625C44.7129 206.292 17.3917 215.688 19.0993 237.042C26.125 258.129 62.8984 219.104 64.3499 204.583C65.2037 196.042 66.9112 181.521 73.7415 173.833C86.5483 161.875 90.8172 166.146 101.916 161.021C113.016 155.896 116.06 132.621 124.969 126.854C146.313 116.604 163.389 96.1042 157.412 87.5625C147.167 79.0208 123.261 91.8333 109.6 102.938C93.3786 116.124 99.3551 122.583 91.671 134.542C80.5718 141.375 64.6285 141.063 53.2507 149.917C41.8728 158.77 27.6372 179.813 34.4673 192.625Z" fill="#FE611A" fill-opacity="0.9" stroke="#FE611A" stroke-opacity="0.9" stroke-linecap="round" stroke-linejoin="round"/>
<path d="M177.328 120.875C177.328 103.636 191.227 93.4682 206.078 83.2917C213.67 78.2283 232.169 76.0816 239.376 83.2917C246.977 90.8967 249.621 109.771 233.298 127.708C216.975 145.646 210.347 145.646 194.979 145.646C177.328 140.521 177.328 129.236 177.328 120.875Z" fill="#FE611A" fill-opacity="0.9" stroke="#FE611A" stroke-opacity="0.9" stroke-linecap="round" stroke-linejoin="round"/>
<path d="M315.363 79.0208C323.136 64.5781 339.396 58.5208 353.783 58.5208C368.17 58.5208 370.005 79.1906 343.538 85C319.756 90.2199 332.807 105.891 323.9 114.801C313.015 125.691 313.336 139.956 302.526 150.771C292.725 160.577 277.502 150.27 265.843 156.75C257.375 161.456 256.451 169.563 246.206 179.813C229.13 189.208 214.205 183.359 214.616 175.542C214.616 164.438 228.277 161.021 246.206 138.813C262.15 126.854 282.468 131.451 290.603 129.417C299.608 127.164 306.893 114.293 311.094 106.354C314.627 99.6766 311.754 85.7251 315.363 79.0208Z" fill="#FE611A" fill-opacity="0.9" stroke="#FE611A" stroke-opacity="0.9" stroke-linecap="round" stroke-linejoin="round"/>
<path d="M120.7 193.479C125.822 174.597 132.653 185.792 147.167 172.979C150.734 169.83 136.922 155.896 147.167 143.938C154.21 140.806 165.95 143.938 173.634 155.896C183.026 172.979 184.734 183.229 152.29 199.458C131.799 209.708 137.775 218.25 120.7 229.354C104.478 233.716 93.3785 231.063 93.3785 220.813C97.6474 206.292 107.039 212.271 120.7 193.479Z" fill="#FE611A" fill-opacity="0.9" stroke="#FE611A" stroke-opacity="0.9" stroke-linecap="round" stroke-linejoin="round"/>
<path d="M276.942 201.167C276.942 169.436 302.533 165.384 329.023 155.042C340.106 155.042 343.206 133.612 349.514 128.563C358.667 121.237 366.59 149.115 366.59 158.458C366.59 176.227 340.105 162.839 329.023 168.708C320.983 172.967 310.24 171.271 294.872 196.042C279.504 220.812 276.942 212.364 276.942 201.167Z" fill="#FE611A" fill-opacity="0.9" stroke="#FE611A" stroke-opacity="0.9" stroke-linecap="round" stroke-linejoin="round"/>
<path d="M43.8999 111.72V78.7389H60.5549L60.0303 83.8867H50.3259V92.4374H57.1889V97.8469H50.3259V111.196L43.8999 111.72Z" fill="black"/>
<path d="M61.4712 111.458L68.378 79.1315L77.5142 78.7389L84.5958 111.196L77.6016 111.458L76.4213 104.434H68.5965L67.1977 111.458H61.4712ZM69.7768 99.1993H75.241L72.2248 83.5377L69.7768 99.1993Z" fill="black"/>
<path d="M103.426 111.72L93.8525 91.2595V111.196L88.126 111.458V79.0007L94.8142 78.7389L103.295 98.1959V79.2624L108.715 78.7389V111.196L103.426 111.72Z" fill="black"/>
<path d="M42.1514 173.261V169.204L52.6864 145.646H43.1568L43.6814 140.542H60.1178V144.774L49.845 168.157H60.4238L59.4183 173.261H42.1514Z" fill="black"/>
<path d="M64.5189 173.523V141.065L70.9448 140.542V172.999L64.5189 173.523Z" fill="black"/>
<path d="M92.3693 173.523L82.796 153.062V172.999L77.0695 173.261V140.804L83.7577 140.542L92.2382 159.999V141.065L97.6587 140.542V172.999L92.3693 173.523Z" fill="black"/>
<path d="M103.793 173.261V140.542H120.448L119.923 145.646H110.219V153.455H117.126L117.082 158.952H110.219V168.157H120.798L120.273 173.261H103.793Z" fill="black"/>
<path d="M51.472 39.5201V40.015H47.9403V48.8293H47.4569V40.015H43.9252V39.5201H51.472Z" fill="black"/>
<path d="M54.04 48.8293V39.5201H54.5369V43.9206H60.7409V39.5201H61.2378V48.8293H60.7409V44.4155H54.5369V48.8293H54.04Z" fill="black"/>
<path d="M70.614 39.5201V40.015H67.8209V48.3344H70.614V48.8293H64.5578V48.3344H67.3375V40.015H64.5578V39.5201H70.614Z" fill="black"/>
<path d="M77.7209 44.3753C76.9599 44.2237 76.3377 44.0588 75.8543 43.8804C75.3798 43.6932 75.0038 43.4435 74.7263 43.1314C74.4577 42.8104 74.3235 42.4002 74.3235 41.9009C74.3235 41.3837 74.4577 40.929 74.7263 40.5366C75.0038 40.1443 75.3888 39.8411 75.8812 39.6271C76.3825 39.4131 76.9599 39.3061 77.6135 39.3061C78.2401 39.3061 78.8131 39.4398 79.3323 39.7073C79.8605 39.9659 80.2768 40.3315 80.5812 40.8041C80.8855 41.2767 81.0377 41.8162 81.0377 42.4225H80.5409C80.5409 41.8964 80.4111 41.4328 80.1515 41.0315C79.8918 40.6302 79.5382 40.3226 79.0906 40.1086C78.643 39.8857 78.1461 39.7742 77.6 39.7742C77.1166 39.7742 76.6645 39.85 76.2437 40.0016C75.823 40.1532 75.4783 40.385 75.2097 40.6971C74.9501 41.0092 74.8203 41.4016 74.8203 41.8741C74.8203 42.3022 74.9457 42.6455 75.1963 42.9041C75.447 43.1537 75.7737 43.3454 76.1766 43.4792C76.5795 43.6129 77.1435 43.7556 77.8686 43.9072C78.6027 44.0588 79.1712 44.2059 79.574 44.3486C79.9858 44.4823 80.3305 44.7097 80.608 45.0307C80.8945 45.3517 81.0377 45.802 81.0377 46.3816C81.0377 46.9612 80.8811 47.4517 80.5677 47.8529C80.2634 48.2453 79.856 48.5395 79.3457 48.7357C78.8355 48.9319 78.2804 49.03 77.6806 49.03C76.9376 49.03 76.284 48.8917 75.72 48.6153C75.156 48.3389 74.7218 47.951 74.4175 47.4517C74.122 46.9434 73.9743 46.3638 73.9743 45.7129H74.4712C74.4712 46.2836 74.5965 46.7829 74.8472 47.2109C75.1068 47.6389 75.4783 47.9733 75.9617 48.2141C76.4452 48.4459 77.0181 48.5618 77.6806 48.5618C78.5042 48.5618 79.1846 48.3656 79.7217 47.9733C80.2678 47.581 80.5409 47.0459 80.5409 46.3683C80.5409 45.9046 80.4245 45.5479 80.1917 45.2982C79.959 45.0486 79.6636 44.8702 79.3055 44.7632C78.9563 44.6473 78.4281 44.518 77.7209 44.3753Z" fill="black"/>
<path d="M100.435 39.5201V40.015H97.6417V48.3344H100.435V48.8293H94.3786V48.3344H97.1583V40.015H94.3786V39.5201H100.435Z" fill="black"/>
<path d="M107.542 44.3753C106.781 44.2237 106.159 44.0588 105.675 43.8804C105.201 43.6932 104.825 43.4435 104.547 43.1314C104.279 42.8104 104.144 42.4002 104.144 41.9009C104.144 41.3837 104.279 40.929 104.547 40.5366C104.825 40.1443 105.21 39.8411 105.702 39.6271C106.203 39.4131 106.781 39.3061 107.434 39.3061C108.061 39.3061 108.634 39.4398 109.153 39.7073C109.681 39.9659 110.098 40.3315 110.402 40.8041C110.706 41.2767 110.859 41.8162 110.859 42.4225H110.362C110.362 41.8964 110.232 41.4328 109.972 41.0315C109.713 40.6302 109.359 40.3226 108.911 40.1086C108.464 39.8857 107.967 39.7742 107.421 39.7742C106.937 39.7742 106.485 39.85 106.065 40.0016C105.644 40.1532 105.299 40.385 105.031 40.6971C104.771 41.0092 104.641 41.4016 104.641 41.8741C104.641 42.3022 104.766 42.6455 105.017 42.9041C105.268 43.1537 105.595 43.3454 105.997 43.4792C106.4 43.6129 106.964 43.7556 107.689 43.9072C108.424 44.0588 108.992 44.2059 109.395 44.3486C109.807 44.4823 110.151 44.7097 110.429 45.0307C110.715 45.3517 110.859 45.802 110.859 46.3816C110.859 46.9612 110.702 47.4517 110.389 47.8529C110.084 48.2453 109.677 48.5395 109.167 48.7357C108.656 48.9319 108.101 49.03 107.501 49.03C106.758 49.03 106.105 48.8917 105.541 48.6153C104.977 48.3389 104.543 47.951 104.238 47.4517C103.943 46.9434 103.795 46.3638 103.795 45.7129H104.292C104.292 46.2836 104.417 46.7829 104.668 47.2109C104.928 47.6389 105.299 47.9733 105.783 48.2141C106.266 48.4459 106.839 48.5618 107.501 48.5618C108.325 48.5618 109.005 48.3656 109.543 47.9733C110.089 47.581 110.362 47.0459 110.362 46.3683C110.362 45.9046 110.245 45.5479 110.013 45.2982C109.78 45.0486 109.484 44.8702 109.126 44.7632C108.777 44.6473 108.249 44.518 107.542 44.3753Z" fill="black"/>
<path d="M44.0461 68.8923V59.5831H44.5698L51.096 65.8962V59.5831H51.5929V68.8923H51.096V66.5918L44.5429 60.2251V68.8923H44.0461Z" fill="black"/>
<path d="M57.6389 59.3825C58.3372 59.3825 58.9818 59.5563 59.5726 59.9041C60.1635 60.2429 60.629 60.7066 60.9692 61.2951C61.3183 61.8836 61.4929 62.5257 61.4929 63.2212V65.2542C61.4929 65.9497 61.3183 66.5918 60.9692 67.1803C60.629 67.7688 60.1635 68.2369 59.5726 68.5847C58.9818 68.9235 58.3372 69.093 57.6389 69.093C56.9406 69.093 56.296 68.9235 55.7052 68.5847C55.1143 68.2369 54.6443 67.7688 54.2952 67.1803C53.955 66.5918 53.7849 65.9497 53.7849 65.2542V63.2212C53.7849 62.5257 53.955 61.8836 54.2952 61.2951C54.6443 60.7066 55.1143 60.2429 55.7052 59.9041C56.296 59.5563 56.9406 59.3825 57.6389 59.3825ZM54.2818 65.2542C54.2818 65.8606 54.4295 66.4223 54.7249 66.9395C55.0293 67.4478 55.4366 67.8535 55.9469 68.1567C56.4661 68.4509 57.0301 68.5981 57.6389 68.5981C58.2477 68.5981 58.8072 68.4509 59.3175 68.1567C59.8367 67.8535 60.244 67.4478 60.5395 66.9395C60.8439 66.4223 60.996 65.8606 60.996 65.2542V63.2212C60.996 62.6148 60.8439 62.0575 60.5395 61.5493C60.244 61.0321 59.8367 60.6264 59.3175 60.3321C58.8072 60.0289 58.2477 59.8773 57.6389 59.8773C57.0301 59.8773 56.4661 60.0289 55.9469 60.3321C55.4366 60.6264 55.0293 61.0321 54.7249 61.5493C54.4295 62.0575 54.2818 62.6148 54.2818 63.2212V65.2542Z" fill="black"/>
<path d="M71.3526 59.5831V60.078H67.8209V68.8923H67.3375V60.078H63.8058V59.5831H71.3526Z" fill="black"/>
<path d="M87.2046 59.5831H87.7283L91.5689 68.8923H91.0317L89.7694 65.816H85.1635L83.8877 68.8923H83.364L87.2046 59.5831ZM85.3649 65.3345H89.568L87.4597 60.2251L85.3649 65.3345Z" fill="black"/>
<path d="M107.381 38.7488C108.089 38.7488 108.749 38.9001 109.352 39.2097C109.965 39.511 110.459 39.9428 110.82 40.5032C111.187 41.0728 111.365 41.7184 111.365 42.4225V42.9798H109.749V42.4225C109.749 41.9922 109.644 41.6356 109.449 41.3334C109.247 41.0219 108.974 40.7822 108.616 40.611L108.608 40.6071C108.245 40.4263 107.835 40.3315 107.368 40.3315C106.944 40.3315 106.557 40.3978 106.202 40.5257C105.866 40.6467 105.605 40.825 105.405 41.0561C105.244 41.2517 105.147 41.5109 105.147 41.8741C105.147 42.1846 105.234 42.3784 105.363 42.5136C105.541 42.6896 105.787 42.8395 106.121 42.9505C106.494 43.0743 107.034 43.2118 107.75 43.3616C108.49 43.5143 109.085 43.6667 109.522 43.8211C110.025 43.9857 110.453 44.2678 110.797 44.6639C111.2 45.1175 111.365 45.7154 111.365 46.3816C111.365 47.0666 111.177 47.682 110.778 48.1944C110.405 48.6748 109.91 49.0266 109.315 49.2556C108.734 49.4788 108.11 49.5873 107.448 49.5873C106.635 49.5873 105.894 49.4357 105.241 49.1154C104.588 48.7956 104.071 48.3376 103.707 47.7409L103.704 47.7359L103.701 47.7309C103.351 47.1288 103.182 46.451 103.182 45.7129V45.1556H104.798V45.7129C104.798 46.1982 104.904 46.5966 105.096 46.9264C105.296 47.2545 105.583 47.5173 105.976 47.7137C106.367 47.9006 106.852 48.0045 107.448 48.0045C108.181 48.0045 108.738 47.831 109.159 47.5239L109.162 47.5213C109.561 47.235 109.749 46.8691 109.749 46.3683C109.749 45.9938 109.656 45.7917 109.549 45.6775C109.391 45.5071 109.184 45.3782 108.912 45.297L108.904 45.2946L108.896 45.2919C108.58 45.1871 108.08 45.0632 107.378 44.9217C106.601 44.7669 105.948 44.5952 105.428 44.4031L105.422 44.4009L105.416 44.3986C104.877 44.1861 104.422 43.8913 104.075 43.5009L104.07 43.4947L104.064 43.4882C103.696 43.0484 103.532 42.5041 103.532 41.9009C103.532 41.2822 103.694 40.7158 104.032 40.2227L104.037 40.2156C104.38 39.7306 104.85 39.3663 105.425 39.1163L105.428 39.1148C106.012 38.8658 106.667 38.7488 107.381 38.7488Z" fill="black"/>
<path fill-rule="evenodd" clip-rule="evenodd" d="M79.5843 39.2097C78.9813 38.9001 78.321 38.7488 77.6135 38.7488C76.8989 38.7488 76.2441 38.8658 75.6608 39.1148L75.6574 39.1163C75.0823 39.3663 74.612 39.7306 74.2689 40.2156L74.264 40.2227C73.9264 40.7158 73.7639 41.2822 73.7639 41.9009C73.7639 42.5041 73.9285 43.0484 74.2965 43.4882L74.3019 43.4947L74.3075 43.5009C74.6546 43.8913 75.1097 44.1861 75.6482 44.3986L75.6541 44.4009L75.66 44.4031C76.1808 44.5952 76.8338 44.7669 77.6103 44.9217C78.3119 45.0632 78.8128 45.1871 79.1285 45.2919L79.1366 45.2946L79.1447 45.297C79.4165 45.3782 79.623 45.5071 79.7817 45.6775C79.8882 45.7917 79.9814 45.9938 79.9814 46.3683C79.9814 46.8691 79.7929 47.235 79.3944 47.5213L79.3909 47.5239C78.9704 47.831 78.4138 48.0045 77.6806 48.0045C77.0848 48.0045 76.5996 47.9006 76.2082 47.7137C75.8153 47.5173 75.5283 47.2545 75.3283 46.9264C75.1361 46.5966 75.0307 46.1982 75.0307 45.7129V45.1556H73.4148V45.7129C73.4148 46.451 73.5833 47.1288 73.9332 47.7309L73.9362 47.7359L73.9392 47.7409C74.3029 48.3376 74.8205 48.7956 75.473 49.1154C76.1266 49.4357 76.8674 49.5873 77.6806 49.5873C78.3426 49.5873 78.9667 49.4788 79.5472 49.2556C80.1428 49.0266 80.637 48.6748 81.0099 48.1944C81.4098 47.682 81.5973 47.0666 81.5973 46.3816C81.5973 45.7154 81.4323 45.1175 81.0293 44.6639C80.6858 44.2678 80.2573 43.9857 79.7547 43.8211C79.317 43.6667 78.7222 43.5143 77.9828 43.3616C77.266 43.2118 76.7264 43.0743 76.3535 42.9505C76.0192 42.8395 75.7736 42.6896 75.5956 42.5136C75.4662 42.3784 75.3798 42.1846 75.3798 41.8741C75.3798 41.5109 75.4764 41.2517 75.6377 41.0561C75.8378 40.825 76.0981 40.6467 76.4341 40.5257C76.7891 40.3978 77.1763 40.3315 77.6 40.3315C78.0673 40.3315 78.4774 40.4263 78.8404 40.6071L78.8485 40.611C79.2064 40.7822 79.4796 41.0219 79.6811 41.3334C79.8766 41.6356 79.9814 41.9922 79.9814 42.4225V42.9798H81.5973V42.4225C81.5973 41.7184 81.419 41.0728 81.0521 40.5032C80.6912 39.9428 80.1974 39.511 79.5843 39.2097ZM43.3657 38.9628H52.0316V40.5723H48.4999V49.3866H46.8974V40.5723H43.3657V38.9628ZM53.4805 38.9628H55.0964V43.3633H60.1814V38.9628H61.7973V49.3866H60.1814V44.9728H55.0964V49.3866H53.4805V38.9628ZM63.9982 38.9628H71.1736V40.5723H68.3804V47.7771H71.1736V49.3866H63.9982V47.7771H66.7779V40.5723H63.9982V38.9628ZM93.8191 38.9628H100.994V40.5723H98.2013V47.7771H100.994V49.3866H93.8191V47.7771H96.5988V40.5723H93.8191V38.9628ZM87.3471 59.0258H86.8296L82.5292 69.4496H84.262L85.5377 66.3733H89.3937L90.656 69.4496H92.4037L88.1033 59.0258H87.5698L87.4581 58.755L87.3471 59.0258ZM88.7331 64.7772L87.4614 61.6952L86.1978 64.7772H88.7331ZM59.0356 67.6752C59.4727 67.4198 59.8095 67.083 60.0552 66.6603L60.0568 66.6577C60.3102 66.227 60.4365 65.7627 60.4365 65.2542V63.2212C60.4365 62.7128 60.3103 62.2545 60.0589 61.8348L60.056 61.8298L60.0532 61.8249C59.8075 61.3948 59.4726 61.0612 59.0408 60.8165L59.0358 60.8137L59.0308 60.8107C58.6094 60.5604 58.1493 60.4346 57.6389 60.4346C57.1284 60.4346 56.6623 60.5604 56.2299 60.8129L56.2272 60.8144C55.8029 61.0591 55.4648 61.3946 55.2084 61.8298C54.9644 62.25 54.8413 62.7101 54.8413 63.2212V65.2542C54.8413 65.7639 54.9638 66.2288 55.2084 66.659C55.4639 67.0838 55.802 67.4206 56.2286 67.6751C56.6604 67.9187 57.1272 68.0408 57.6389 68.0408C58.152 68.0408 58.6138 67.9181 59.0356 67.6752ZM55.4233 59.4227C56.1012 59.0243 56.8434 58.8252 57.6389 58.8252C58.4344 58.8252 59.1766 59.0243 59.8545 59.4227C60.5287 59.8099 61.0637 60.3428 61.4525 61.0143C61.8524 61.6895 62.0524 62.4288 62.0524 63.2212V65.2542C62.0524 66.0465 61.8525 66.7858 61.4526 67.4609C61.064 68.1321 60.5298 68.6687 59.8573 69.0645L59.8518 69.0677C59.1739 69.4564 58.4327 69.6503 57.6389 69.6503C56.8451 69.6503 56.1039 69.4564 55.426 69.0677L55.4205 69.0645C54.7484 68.6689 54.2106 68.1332 53.8135 67.4638L53.8103 67.4584C53.42 66.7832 53.2254 66.0449 53.2254 65.2542V63.2212C53.2254 62.4305 53.42 61.6923 53.8103 61.0171L53.8135 61.0116C54.2108 60.3418 54.7495 59.8097 55.4233 59.4227ZM45.1024 61.5472V69.4496H43.4865V59.0258H43.9834V58.903L44.1098 59.0258H44.7968L50.5365 64.5781V59.0258H52.1524V69.4496H50.5365V66.8267L45.1024 61.5472ZM63.2462 59.0258H71.9121V60.6353H68.3804V69.4496H66.7779V60.6353H63.2462V59.0258Z" fill="black"/>
</svg>
